<svg width="158" height="58" viewBox="0 0 158 58" fill="none" xmlns="http://www.w3.org/2000/svg">
<path d="M4.46875 12L4.46875 1.6875L0.6875 1.6875L0.6875 0.726562L9.3125 0.726562V1.6875L5.53125 1.6875L5.53125 12H4.46875ZM11.4453 12L11.4453 0.726562L12.5078 0.726562L12.5078 5.74219L19.1094 5.74219V0.726562L20.1719 0.726562L20.1719 12H19.1094L19.1094 6.70312L12.5078 6.70312V12H11.4453ZM23.0703 12L23.0703 0.726562L29.875 0.726562V1.6875L24.1328 1.6875V5.75L29.5938 5.75V6.70312L24.1328 6.70312L24.1328 11.0391H29.875V12H23.0703ZM41.2422 12.2344C40.2214 12.2344 39.3385 11.9974 38.5938 11.5234C37.8542 11.0443 37.2812 10.3672 36.875 9.49219C36.474 8.61719 36.2734 7.57812 36.2734 6.375V6.35937C36.2734 5.15625 36.474 4.11719 36.875 3.24219C37.2812 2.36198 37.8542 1.6849 38.5938 1.21094C39.3385 0.731771 40.2188 0.492187 41.2344 0.492187C42.0104 0.492187 42.7188 0.651042 43.3594 0.96875C44.0052 1.28646 44.5365 1.72135 44.9531 2.27344C45.3698 2.82552 45.6302 3.45573 45.7344 4.16406L45.7266 4.17187L44.6562 4.17969V4.16406C44.5417 3.63281 44.3229 3.16667 44 2.76562C43.6771 2.36458 43.276 2.04948 42.7969 1.82031C42.3229 1.59115 41.8021 1.47656 41.2344 1.47656C40.4479 1.47656 39.763 1.67708 39.1797 2.07812C38.6016 2.47917 38.1536 3.04427 37.8359 3.77344C37.5234 4.5026 37.3672 5.36458 37.3672 6.35937V6.375C37.3672 7.36458 37.5234 8.22396 37.8359 8.95312C38.1536 9.68229 38.6016 10.2474 39.1797 10.6484C39.763 11.0495 40.4505 11.25 41.2422 11.25C41.8255 11.25 42.3542 11.1484 42.8281 10.9453C43.3073 10.7422 43.7057 10.4583 44.0234 10.0937C44.3411 9.72396 44.5495 9.29167 44.6484 8.79687L44.6641 8.78125H45.7344V8.79687C45.625 9.48437 45.3646 10.0859 44.9531 10.6016C44.5469 11.1172 44.026 11.5182 43.3906 11.8047C42.7552 12.0911 42.0391 12.2344 41.2422 12.2344ZM52.7578 12.2344C51.6953 12.2344 50.7839 11.9948 50.0234 11.5156C49.263 11.0365 48.6771 10.3594 48.2656 9.48437C47.8542 8.60417 47.6484 7.5651 47.6484 6.36719V6.35156C47.6484 5.14844 47.8542 4.10937 48.2656 3.23437C48.6823 2.35937 49.2708 1.6849 50.0312 1.21094C50.7969 0.731771 51.7057 0.492187 52.7578 0.492187C53.8099 0.492187 54.7161 0.731771 55.4766 1.21094C56.2422 1.6849 56.8307 2.36198 57.2422 3.24219C57.6536 4.11719 57.8594 5.15365 57.8594 6.35156V6.36719C57.8594 7.5651 57.6536 8.60156 57.2422 9.47656C56.8307 10.3516 56.2422 11.0312 55.4766 11.5156C54.7161 11.9948 53.8099 12.2344 52.7578 12.2344ZM52.7578 11.25C53.5807 11.25 54.2917 11.0495 54.8906 10.6484C55.4896 10.2422 55.9531 9.67448 56.2812 8.94531C56.6094 8.21094 56.7734 7.35156 56.7734 6.36719V6.35156C56.7734 5.35677 56.6094 4.49479 56.2812 3.76562C55.9531 3.03646 55.4896 2.47396 54.8906 2.07812C54.2917 1.67708 53.5807 1.47656 52.7578 1.47656C51.9349 1.47656 51.2214 1.67708 50.6172 2.07812C50.0182 2.47396 49.5547 3.03646 49.2266 3.76562C48.8984 4.49479 48.7344 5.35677 48.7344 6.35156V6.36719C48.7344 7.35156 48.8958 8.21094 49.2188 8.94531C49.5417 9.67448 50.0026 10.2422 50.6016 10.6484C51.2057 11.0495 51.9245 11.25 52.7578 11.25ZM60.8359 7.75V6.79687H64.0547C64.9245 6.79687 65.6042 6.57031 66.0938 6.11719C66.5885 5.66406 66.8359 5.03906 66.8359 4.24219V4.22656C66.8359 3.42969 66.5885 2.80729 66.0938 2.35937C65.6042 1.90625 64.9245 1.67969 64.0547 1.67969L60.8359 1.67969V0.726562L64.2969 0.726562C65.0156 0.726562 65.6458 0.872396 66.1875 1.16406C66.7292 1.45052 67.1536 1.85677 67.4609 2.38281C67.7682 2.90885 67.9219 3.52083 67.9219 4.21875V4.23437C67.9219 4.93229 67.7682 5.54687 67.4609 6.07812C67.1536 6.60417 66.7292 7.01562 66.1875 7.3125C65.6458 7.60417 65.0156 7.75 64.2969 7.75H60.8359ZM60.3047 12V0.726562L61.3672 0.726562V12H60.3047ZM70.7734 7.75V6.79687L73.9922 6.79687C74.862 6.79687 75.5417 6.57031 76.0312 6.11719C76.526 5.66406 76.7734 5.03906 76.7734 4.24219V4.22656C76.7734 3.42969 76.526 2.80729 76.0312 2.35937C75.5417 1.90625 74.862 1.67969 73.9922 1.67969L70.7734 1.67969V0.726562L74.2344 0.726562C74.9531 0.726562 75.5833 0.872396 76.125 1.16406C76.6667 1.45052 77.0911 1.85677 77.3984 2.38281C77.7057 2.90885 77.8594 3.52083 77.8594 4.21875V4.23437C77.8594 4.93229 77.7057 5.54687 77.3984 6.07812C77.0911 6.60417 76.6667 7.01562 76.125 7.3125C75.5833 7.60417 74.9531 7.75 74.2344 7.75L70.7734 7.75ZM70.2422 12V0.726562L71.3047 0.726562V12H70.2422ZM80.1797 12V0.726562L86.9844 0.726562V1.6875L81.2422 1.6875V5.75L86.7031 5.75V6.70312L81.2422 6.70312V11.0391L86.9844 11.0391V12L80.1797 12ZM89.5234 12V0.726562L93.5547 0.726562C94.2891 0.726562 94.9245 0.861979 95.4609 1.13281C96.0026 1.40365 96.4219 1.78385 96.7188 2.27344C97.0156 2.76302 97.1641 3.34375 97.1641 4.01562V4.03125C97.1641 4.82292 96.9479 5.5026 96.5156 6.07031C96.0885 6.63281 95.4974 7.01302 94.7422 7.21094L97.4766 12H96.2344L93.6406 7.375C93.6094 7.38021 93.5729 7.38281 93.5312 7.38281C93.4948 7.38281 93.4557 7.38281 93.4141 7.38281L90.5859 7.38281V12H89.5234ZM90.5859 6.4375L93.4688 6.4375C94.2917 6.4375 94.9297 6.22917 95.3828 5.8125C95.8411 5.39583 96.0703 4.8125 96.0703 4.0625V4.04687C96.0703 3.30729 95.8359 2.72917 95.3672 2.3125C94.8984 1.89062 94.2526 1.67969 93.4297 1.67969L90.5859 1.67969V6.4375ZM104.07 12V0.726562L105.133 0.726562V5.74219L111.734 5.74219V0.726562L112.797 0.726562V12H111.734V6.70312L105.133 6.70312V12H104.07ZM120.352 12.2344C119.289 12.2344 118.378 11.9948 117.617 11.5156C116.857 11.0365 116.271 10.3594 115.859 9.48437C115.448 8.60417 115.242 7.5651 115.242 6.36719V6.35156C115.242 5.14844 115.448 4.10937 115.859 3.23437C116.276 2.35937 116.865 1.6849 117.625 1.21094C118.391 0.731771 119.299 0.492187 120.352 0.492187C121.404 0.492187 122.31 0.731771 123.07 1.21094C123.836 1.6849 124.424 2.36198 124.836 3.24219C125.247 4.11719 125.453 5.15365 125.453 6.35156V6.36719C125.453 7.5651 125.247 8.60156 124.836 9.47656C124.424 10.3516 123.836 11.0312 123.07 11.5156C122.31 11.9948 121.404 12.2344 120.352 12.2344ZM120.352 11.25C121.174 11.25 121.885 11.0495 122.484 10.6484C123.083 10.2422 123.547 9.67448 123.875 8.94531C124.203 8.21094 124.367 7.35156 124.367 6.36719V6.35156C124.367 5.35677 124.203 4.49479 123.875 3.76562C123.547 3.03646 123.083 2.47396 122.484 2.07812C121.885 1.67708 121.174 1.47656 120.352 1.47656C119.529 1.47656 118.815 1.67708 118.211 2.07812C117.612 2.47396 117.148 3.03646 116.82 3.76562C116.492 4.49479 116.328 5.35677 116.328 6.35156V6.36719C116.328 7.35156 116.49 8.21094 116.812 8.94531C117.135 9.67448 117.596 10.2422 118.195 10.6484C118.799 11.0495 119.518 11.25 120.352 11.25ZM132.25 12.2344C131.349 12.2344 130.573 12.0625 129.922 11.7187C129.271 11.3698 128.768 10.888 128.414 10.2734C128.065 9.65365 127.891 8.9349 127.891 8.11719V0.726562L128.953 0.726562V8.05469C128.953 8.6901 129.083 9.2474 129.344 9.72656C129.609 10.2057 129.987 10.5807 130.477 10.8516C130.971 11.1172 131.562 11.25 132.25 11.25C132.943 11.25 133.534 11.1172 134.023 10.8516C134.518 10.5807 134.896 10.2057 135.156 9.72656C135.417 9.2474 135.547 8.6901 135.547 8.05469V0.726562L136.609 0.726562V8.11719C136.609 8.9349 136.435 9.65365 136.086 10.2734C135.737 10.8932 135.237 11.375 134.586 11.7187C133.935 12.0625 133.156 12.2344 132.25 12.2344ZM143.117 12.2344C142.32 12.2344 141.62 12.1016 141.016 11.8359C140.417 11.5703 139.938 11.2057 139.578 10.7422C139.219 10.2786 139.01 9.7474 138.953 9.14844L138.945 9.0625H140.008L140.016 9.14844C140.057 9.5599 140.219 9.92448 140.5 10.2422C140.781 10.5599 141.151 10.8073 141.609 10.9844C142.073 11.1615 142.594 11.25 143.172 11.25C143.74 11.25 144.242 11.1562 144.68 10.9687C145.117 10.776 145.461 10.5156 145.711 10.1875C145.961 9.85417 146.086 9.47656 146.086 9.05469V9.04687C146.086 8.52083 145.891 8.08073 145.5 7.72656C145.109 7.36719 144.479 7.08854 143.609 6.89062L142.453 6.63281C141.318 6.3776 140.497 6.00521 139.992 5.51562C139.487 5.02083 139.234 4.38542 139.234 3.60937V3.60156C139.234 3.0026 139.398 2.47135 139.727 2.00781C140.055 1.53906 140.508 1.16927 141.086 0.898437C141.669 0.627604 142.336 0.492187 143.086 0.492187C143.82 0.492187 144.469 0.622396 145.031 0.882812C145.599 1.14323 146.049 1.49219 146.383 1.92969C146.721 2.36198 146.911 2.84896 146.953 3.39062L146.961 3.48437L145.898 3.48437L145.883 3.39844C145.831 3.03385 145.682 2.70833 145.438 2.42187C145.193 2.13021 144.867 1.89844 144.461 1.72656C144.06 1.55469 143.591 1.47135 143.055 1.47656C142.534 1.47656 142.068 1.5651 141.656 1.74219C141.245 1.91406 140.917 2.15885 140.672 2.47656C140.432 2.78906 140.312 3.15625 140.312 3.57812V3.58594C140.312 4.08073 140.5 4.49219 140.875 4.82031C141.25 5.14844 141.865 5.40885 142.719 5.60156L143.875 5.86719C144.661 6.04427 145.294 6.27083 145.773 6.54687C146.258 6.82292 146.612 7.15625 146.836 7.54687C147.06 7.9375 147.172 8.39323 147.172 8.91406V8.92187C147.172 9.58854 147.003 10.1693 146.664 10.6641C146.326 11.1589 145.852 11.5443 145.242 11.8203C144.633 12.0964 143.924 12.2344 143.117 12.2344ZM149.523 12V0.726562L156.328 0.726562V1.6875L150.586 1.6875V5.75L156.047 5.75V6.70312L150.586 6.70312V11.0391L156.328 11.0391V12L149.523 12Z" fill="black"/>
<path d="M14.6312 49.4791C12.5182 49.4791 10.6325 49.1781 8.97403 48.5762C7.31559 47.9619 5.90898 47.0713 4.75421 45.9042C3.59944 44.7249 2.71494 43.2814 2.1007 41.5738C1.49874 39.854 1.19777 37.8884 1.19777 35.6772V35.6587C1.19777 32.7472 1.72601 30.2718 2.7825 28.2326C3.85128 26.181 5.36845 24.6208 7.33402 23.5521C9.31187 22.471 11.6644 21.9305 14.3916 21.9305C16.6152 21.9305 18.6114 22.3297 20.3805 23.1282C22.1617 23.9268 23.5991 25.0201 24.6924 26.4083C25.798 27.7965 26.4369 29.3751 26.6088 31.1441L26.6273 31.3283H18.9431L18.8879 31.1441C18.6176 30.2596 18.0893 29.5655 17.3031 29.0618C16.5169 28.5581 15.5587 28.3063 14.4285 28.3063C13.3228 28.3063 12.3769 28.5827 11.5907 29.1355C10.8045 29.6883 10.2025 30.5053 9.78483 31.5863C9.36715 32.6674 9.15831 33.9941 9.15831 35.5666V35.585C9.15831 36.7889 9.2873 37.8577 9.54528 38.7913C9.81554 39.725 10.1964 40.5112 10.6878 41.15C11.1914 41.7888 11.7872 42.2741 12.4752 42.6058C13.1754 42.9375 13.9555 43.1033 14.8154 43.1033C15.6631 43.1033 16.4125 42.9743 17.0636 42.7163C17.7147 42.4461 18.2429 42.0591 18.6483 41.5554C19.0537 41.0517 19.2994 40.4498 19.3854 39.7496L19.4222 39.4732H14.7786V34.0924H26.9405V37.6857C26.9405 39.5039 26.6641 41.1439 26.1113 42.6058C25.5585 44.0554 24.7477 45.2961 23.6789 46.3281C22.6224 47.3477 21.3325 48.1278 19.8092 48.6683C18.2859 49.2088 16.5599 49.4791 14.6312 49.4791ZM27.2722 49L35.9514 22.4096H43.3223V28.7485H40.7793L35.4907 49H27.2722ZM32.7267 43.7114L34.3483 38.2017H47.3578L48.9794 43.7114H32.7267ZM46.2154 49L40.9268 28.7485V22.4096H45.7547L54.4339 49H46.2154ZM56.8294 49V22.4096H68.8071C71.092 22.4096 73.0146 22.7597 74.5748 23.4599C76.1472 24.1602 77.3388 25.1859 78.1496 26.5373C78.9604 27.8886 79.3658 29.547 79.3658 31.5126V31.5495C79.3658 33.2079 78.9727 34.7251 78.1865 36.101C77.4126 37.4769 76.3806 38.4781 75.0907 39.1046L80.1398 49H71.4053L67.2039 40.2655C67.1548 40.2655 67.0995 40.2655 67.0381 40.2655C66.9766 40.2655 66.9152 40.2655 66.8538 40.2655H64.6425V49H56.8294ZM64.6425 34.7558H67.9041C68.9606 34.7558 69.8083 34.4548 70.4471 33.8529C71.0859 33.2509 71.4053 32.4647 71.4053 31.4942V31.4573C71.4053 30.4868 71.0798 29.7006 70.4287 29.0987C69.7776 28.4844 68.9361 28.1773 67.9041 28.1773H64.6425V34.7558ZM82.5537 49V22.4096H93.9233C96.6137 22.4096 98.9109 22.9071 100.815 23.9022C102.731 24.8973 104.193 26.3653 105.201 28.3063C106.22 30.2473 106.73 32.6367 106.73 35.4745V35.5113C106.73 38.3491 106.22 40.7753 105.201 42.79C104.193 44.8047 102.731 46.3465 100.815 47.4153C98.9109 48.4718 96.6137 49 93.9233 49H82.5537ZM90.3669 42.79H92.8177C94.1199 42.79 95.2132 42.5259 96.0977 41.9977C96.9822 41.4571 97.6456 40.6525 98.0878 39.5837C98.5424 38.5027 98.7697 37.1452 98.7697 35.5113V35.4745C98.7697 33.988 98.5301 32.7349 98.051 31.7153C97.5842 30.6957 96.9024 29.9279 96.0056 29.4119C95.1211 28.8837 94.0584 28.6195 92.8177 28.6195H90.3669V42.79ZM109.789 49V22.4096H128.548V28.6011H117.602V32.8394H127.866V38.5886H117.602V42.8085H128.548V49H109.789ZM132.197 49V22.4096H138.701L150.163 38.994L145.04 36.0088H148.228V22.4096H156.041V49H149.61L138.093 32.1944L143.198 35.1796H140.01V49H132.197Z" fill="black"/>
</svg>
